<?xml version="1.0" encoding="iso-8859-1"?>
<!-- Generator: Adobe Illustrator 19.0.0, SVG Export Plug-In . SVG Version: 6.00 Build 0)  -->
<svg version="1.1" id="Layer_1" xmlns="http://www.w3.org/2000/svg" xmlns:xlink="http://www.w3.org/1999/xlink" x="0px" y="0px"
	 viewBox="0 0 300 300" style="enable-background:new 0 0 300 300;" xml:space="preserve">
<g>
	<g>
		<g>
			<rect x="43.548" y="152.419" width="9.677" height="48.387"/>
			<rect x="101.613" y="152.419" width="9.677" height="48.387"/>
			<path d="M290.323,94.355v9.677h-19.355v-9.677h-9.677v38.71h-19.355V75h-9.677v19.355h-4.839v-9.677h-9.677v9.677h-4.839V75
				h-9.677v58.065h-19.355V65.323h-9.677v62.903h-4.839V70.161h-6.605c-2.797-3.208-5.869-5.773-7.911-7.321V41.129h-9.677V62.84
				c-2.042,1.548-5.115,4.113-7.911,7.321h-6.605v58.065h-4.839V65.323h-9.677v67.742H96.774V75h-9.677v19.355h-4.839v-9.677h-9.677
				v9.677h-4.839V75h-9.677v58.065H38.71v-38.71h-9.677v9.677H9.677v-9.677H0v164.516h300V94.355H290.323z M29.032,249.193H9.677
				v-29.032h19.355V249.193z M29.032,210.484H9.677v-67.742h19.355V210.484z M29.032,133.065H9.677V113.71h19.355V133.065z
				 M38.71,142.742h19.355v67.742H38.71V142.742z M38.71,249.193v-29.032h17.211l-10.887,29.032H38.71z M78.479,249.193h-23.11
				l10.887-29.032h19.481L78.479,249.193z M87.097,210.484H67.742v-67.742h19.355V210.484z M87.097,133.064h-4.839V113.71h-9.677
				v19.355h-4.839v-29.033h19.355V133.064z M96.774,142.742h19.355v67.742H96.774V142.742z M116.13,249.193H88.456l7.259-29.032
				h20.415V249.193z M150.005,71.347c4.219,3.402,9.673,8.995,9.673,13.331h-19.355C140.323,80.371,145.785,74.758,150.005,71.347z
				 M140.323,94.355h19.355v33.871h-4.839v-24.194h-9.677v24.194h-4.839V94.355z M174.193,249.194h-48.387c0,0,0-38.71,0-38.71
				h48.387V249.194z M174.194,200.806h-48.387v-62.903h48.387V200.806z M212.903,104.032h19.355v29.032h-4.839V113.71h-9.677v19.355
				h-4.839V104.032z M183.871,142.742h19.355v67.742h-19.355V142.742z M183.871,249.193v-29.032h20.415l7.258,29.032H183.871z
				 M212.903,142.742h19.355v67.742h-19.355V142.742z M221.521,249.193l-7.258-29.032h19.481l10.887,29.032H221.521z
				 M261.29,249.193h-6.324l-10.887-29.032h17.211V249.193z M261.29,210.484h-19.355v-67.742h19.355V210.484z M290.323,249.194
				h-19.355v-29.032h19.355V249.194z M290.323,210.484h-19.355v-67.742h19.355V210.484z M290.323,133.065h-19.355V113.71h19.355
				V133.065z"/>
			<rect x="246.774" y="152.419" width="9.677" height="48.387"/>
			<rect x="188.71" y="152.419" width="9.677" height="48.387"/>
			<rect x="135.484" y="147.581" width="9.677" height="43.548"/>
			<rect x="154.839" y="147.581" width="9.677" height="43.548"/>
		</g>
	</g>
</g>
<g>
</g>
<g>
</g>
<g>
</g>
<g>
</g>
<g>
</g>
<g>
</g>
<g>
</g>
<g>
</g>
<g>
</g>
<g>
</g>
<g>
</g>
<g>
</g>
<g>
</g>
<g>
</g>
<g>
</g>
</svg>
