<svg id="Capa_1" fill="ffffff" enable-background="new 0 0 512 512" height="512" viewBox="0 0 512 512" width="512" xmlns="http://www.w3.org/2000/svg"><g><g><circle cx="332.772" cy="139.053" r="10.102"/><path d="m279.196 416.792-20.994-7.664-80.364-158.879c-.747-1.479-1.963-2.667-3.457-3.382l-157.771-75.443c11.361-34.227 31.636-63.736 58.921-85.629 3.231-2.592 3.749-7.313 1.156-10.543-2.592-3.231-7.313-3.747-10.543-1.156-31.286 25.104-54.052 59.39-65.835 99.153-.303 1.021-.385 2.096-.24 3.15l14.4 104.909c.161 1.174.598 2.292 1.274 3.264l15.116 21.729v30.558c0 3.15 1.969 5.965 4.928 7.045l238.264 86.978c.85.311 1.718.457 2.571.457 3.062 0 5.936-1.888 7.046-4.93 1.422-3.891-.581-8.197-4.472-9.617zm-41.609-15.189-43.005-15.699-45.991-68.947c-.918-1.376-2.265-2.41-3.832-2.941l-116.058-39.336-2.574-18.754 10.347 5.451c1.115.587 2.312.866 3.489.866 2.694 0 5.299-1.457 6.643-4.006 1.931-3.665.524-8.201-3.14-10.132l-19.848-10.456-2.395-17.45 15.252 8.034c1.115.587 2.311.866 3.488.866 2.695 0 5.3-1.457 6.643-4.007 1.931-3.664.524-8.2-3.141-10.131l-24.751-13.037-1.89-13.771 148.782 71.144zm-193.07-101.937-3.447-4.955 96.459 32.693 33.219 49.8-124.888-45.591v-27.664c0-1.531-.468-3.026-1.343-4.283z"/><path d="m506.582 110.635s-227.663-65.738-227.851-65.777c-26.282-9.138-55.928-13.779-88.151-13.779-33.067 0-65.554 7.945-93.947 22.977-3.661 1.938-5.058 6.478-3.12 10.138 1.347 2.543 3.946 3.993 6.636 3.993 1.183 0 2.384-.281 3.502-.873 26.24-13.892 56.3-21.234 86.93-21.234 30.101 0 57.719 4.24 82.15 12.581l32.044 41.854c2.418 3.157 3.214 7.172 2.183 11.014-1.03 3.842-3.729 6.919-7.403 8.443l-17.131 7.103c-1.876.777-3.356 2.282-4.103 4.171-.747 1.888-.695 3.998.142 5.848l15.839 35.013c-29.22 11.806-48.954 40.446-48.954 72.519v25.338c0 29.438 16.263 56.088 42.441 69.553l86.41 44.439-25.826 58.091-36.264-13.238c-3.897-1.425-8.197.583-9.617 4.473-1.421 3.892.582 8.197 4.473 9.617l102.914 37.568c.846.309 1.714.456 2.57.456 2.685 0 5.251-1.447 6.595-3.925l32.33-59.601c.564-1.042.875-2.203.905-3.388l1.91-75.93c.057-2.265-.913-4.434-2.639-5.901l-34.24-29.13c-1.696-1.442-3.947-2.06-6.144-1.677-2.195.382-4.107 1.72-5.218 3.651l-19.663 34.205-30.961-15.922c-3.682-1.893-8.205-.444-10.1 3.24s-.443 8.205 3.24 10.1l37.325 19.195c3.564 1.833 7.937.541 9.932-2.932l18.736-32.593 11.856 10.087-22.131 38.489c-3.388 5.893-10.774 8.075-16.822 4.965l-92.712-47.681c-21.158-10.882-34.302-32.421-34.302-56.213v-25.338c0-28.387 19.02-53.531 46.396-61.038l77.729-21.539c2.155 4.678 4.212 9.523 6.145 14.513l-79.729 21.865c-20.747 5.688-35.237 24.683-35.237 46.193v25.341c0 18.025 9.961 34.352 26 42.609l15.554 7.999c1.098.564 2.269.832 3.424.832 2.721-.001 5.346-1.486 6.676-4.072 1.895-3.684.443-8.205-3.24-10.1l-15.551-7.997c-11.018-5.673-17.862-16.889-17.862-29.271v-25.341c0-14.774 9.952-27.82 24.203-31.727l87.62-24.029c2.009-.552 3.698-1.913 4.663-3.759.965-1.847 1.119-4.011.425-5.975-2.239-6.331-4.666-12.496-7.253-18.435h104.191c4.143 0 7.5-3.357 7.5-7.5v-35.353c0-3.341-2.209-6.278-5.418-7.205zm-89.394 265.733 20.746-36.081 1.169.994-1.529 60.792-8.639-4.118c-3.739-1.779-8.215-.196-9.998 3.543-1.782 3.739-.196 8.215 3.543 9.998l11.941 5.693-8.785 16.195-12.863-6.132c-3.739-1.784-8.215-.197-9.997 3.542-1.783 3.739-.197 8.215 3.542 9.997l12.156 5.796-9.531 17.57-46.446-16.957 25.527-57.417c1.713.326 3.437.494 5.152.493 9.605 0 18.898-5.016 24.012-13.908zm79.812-230.673h-108.669c-.677 0-1.351.092-2.003.272l-77.653 21.519-13.355-29.521 9.979-4.138c8.013-3.322 13.898-10.034 16.146-18.412s.513-17.133-4.76-24.02l-19.668-25.689 199.983 57.773z"/><path d="m39.177 153.673c-1.769 3.746-.165 8.216 3.58 9.984l41.416 19.554c1.034.488 2.124.72 3.197.72 2.812 0 5.507-1.589 6.787-4.3 1.769-3.746.165-8.216-3.58-9.984l-41.416-19.554c-3.744-1.769-8.216-.166-9.984 3.58z"/></g></g></svg>
